<svg width="28" height="24" viewBox="0 0 28 24" fill="none" xmlns="http://www.w3.org/2000/svg">
<mask id="mask0_383_381" style="mask-type:alpha" maskUnits="userSpaceOnUse" x="0" y="0" width="28" height="24">
<path d="M0 2C0 0.89375 0.89375 0 2 0H26C27.1063 0 28 0.89375 28 2C28 3.10625 27.1063 4 26 4H2C0.89375 4 0 3.10625 0 2ZM0 12C0 10.8937 0.89375 10 2 10H26C27.1063 10 28 10.8937 28 12C28 13.1063 27.1063 14 26 14H2C0.89375 14 0 13.1063 0 12ZM28 22C28 23.1063 27.1063 24 26 24H2C0.89375 24 0 23.1063 0 22C0 20.8937 0.89375 20 2 20H26C27.1063 20 28 20.8937 28 22Z" fill="black"/>
</mask>
<g mask="url(#mask0_383_381)">
<rect x="-47" y="-65" width="129" height="130" fill="#FD9EC7"/>
</g>
</svg>
