<svg width="35" height="43" viewBox="0 0 35 43" fill="none" xmlns="http://www.w3.org/2000/svg">
<mask id="mask0_353_141" style="mask-type:alpha" maskUnits="userSpaceOnUse" x="0" y="0" width="35" height="43">
<path d="M17.5 43C19.9062 43 21.875 41.0154 21.875 38.5897H13.125C13.125 41.0154 15.0938 43 17.5 43ZM30.625 29.7692V18.7436C30.625 11.9738 27.0594 6.30667 20.7812 4.80718V3.30769C20.7812 1.47744 19.3156 0 17.5 0C15.6844 0 14.2188 1.47744 14.2188 3.30769V4.80718C7.9625 6.30667 4.375 11.9518 4.375 18.7436V29.7692L0 34.1795V36.3846H35V34.1795L30.625 29.7692ZM26.25 31.9744H8.75V18.7436C8.75 13.2749 12.0531 8.82051 17.5 8.82051C22.9469 8.82051 26.25 13.2749 26.25 18.7436V31.9744Z" fill="#B38200"/>
</mask>
<g mask="url(#mask0_353_141)">
<rect x="-176" y="-170" width="387" height="339" fill="#0078D4"/>
</g>
</svg>
